<svg width="17" height="18" viewBox="0 0 17 18" fill="none" xmlns="http://www.w3.org/2000/svg">
<path d="M2.72056 0C1.99903 0 1.30704 0.308169 0.796835 0.856713C0.28663 1.40526 0 2.14924 0 2.925V13.275C0 14.0508 0.28663 14.7947 0.796835 15.3433C1.30704 15.8918 1.99903 16.2 2.72056 16.2H7.55229C7.30139 15.7792 7.10192 15.3255 6.95879 14.85H2.72056C2.33204 14.85 1.95944 14.6841 1.68471 14.3887C1.40998 14.0933 1.25565 13.6927 1.25565 13.275V2.925C1.25565 2.0556 1.91193 1.35 2.72056 1.35H12.3472C13.1558 1.35 13.8121 2.0556 13.8121 2.925V7.4817C14.2544 7.63559 14.6764 7.85005 15.0677 8.1198V2.925C15.0677 2.14924 14.7811 1.40526 14.2709 0.856713C13.7607 0.308169 13.0687 0 12.3472 0H2.72056ZM7.95242 5.625C7.95242 5.44598 8.01857 5.27429 8.1363 5.1477C8.25404 5.02112 8.41373 4.95 8.58024 4.95H11.5101C11.6766 4.95 11.8363 5.02112 11.954 5.1477C12.0718 5.27429 12.1379 5.44598 12.1379 5.625C12.1379 5.80402 12.0718 5.97571 11.954 6.1023C11.8363 6.22888 11.6766 6.3 11.5101 6.3H8.58024C8.41373 6.3 8.25404 6.22888 8.1363 6.1023C8.01857 5.97571 7.95242 5.80402 7.95242 5.625ZM6.51261 5.202C6.5743 5.1402 6.62377 5.06568 6.65808 4.98288C6.6924 4.90008 6.71085 4.8107 6.71234 4.72007C6.71382 4.62944 6.69832 4.53941 6.66674 4.45536C6.63517 4.37131 6.58817 4.29496 6.52855 4.23087C6.46893 4.16677 6.39792 4.11624 6.31974 4.08229C6.24157 4.04834 6.15784 4.03167 6.07354 4.03327C5.98924 4.03487 5.9061 4.0547 5.82909 4.0916C5.75208 4.12849 5.68277 4.18168 5.62529 4.248L4.39476 5.571L4.00132 5.148C3.88231 5.02877 3.7249 4.96386 3.56225 4.96694C3.3996 4.97003 3.24441 5.04087 3.12938 5.16454C3.01436 5.28821 2.94847 5.45506 2.9456 5.62993C2.94273 5.8048 3.0031 5.97404 3.114 6.102L3.9511 7.002C4.06881 7.12841 4.22838 7.19941 4.39476 7.19941C4.56113 7.19941 4.7207 7.12841 4.83842 7.002L6.51261 5.202ZM6.51261 9.198C6.63018 9.32456 6.69622 9.49612 6.69622 9.675C6.69622 9.85388 6.63018 10.0254 6.51261 10.152L4.83842 11.952C4.7207 12.0784 4.56113 12.1494 4.39476 12.1494C4.22838 12.1494 4.06881 12.0784 3.9511 11.952L3.114 11.052C3.05232 10.9902 3.00284 10.9157 2.96853 10.8329C2.93421 10.7501 2.91576 10.6607 2.91428 10.5701C2.91279 10.4794 2.9283 10.3894 2.95987 10.3054C2.99145 10.2213 3.03845 10.145 3.09806 10.0809C3.15768 10.0168 3.22869 9.96624 3.30687 9.93229C3.38504 9.89834 3.46878 9.88167 3.55308 9.88327C3.63737 9.88487 3.72051 9.9047 3.79752 9.9416C3.87453 9.97849 3.94385 10.0317 4.00132 10.098L4.39476 10.521L5.62529 9.198C5.74301 9.0716 5.90258 9.00059 6.06895 9.00059C6.23533 9.00059 6.3949 9.0716 6.51261 9.198ZM16.7419 13.05C16.7419 11.7372 16.2569 10.4781 15.3934 9.54982C14.53 8.62152 13.359 8.1 12.1379 8.1C10.9168 8.1 9.74578 8.62152 8.88236 9.54982C8.01894 10.4781 7.53387 11.7372 7.53387 13.05C7.53387 14.3628 8.01894 15.6219 8.88236 16.5502C9.74578 17.4785 10.9168 18 12.1379 18C13.359 18 14.53 17.4785 15.3934 16.5502C16.2569 15.6219 16.7419 14.3628 16.7419 13.05ZM12.5565 13.5L12.5573 15.7527C12.5573 15.872 12.5132 15.9865 12.4347 16.0709C12.3562 16.1553 12.2497 16.2027 12.1387 16.2027C12.0277 16.2027 11.9213 16.1553 11.8428 16.0709C11.7643 15.9865 11.7202 15.872 11.7202 15.7527V13.5H9.62326C9.51226 13.5 9.4058 13.4526 9.32731 13.3682C9.24881 13.2838 9.20472 13.1693 9.20472 13.05C9.20472 12.9307 9.24881 12.8162 9.32731 12.7318C9.4058 12.6474 9.51226 12.6 9.62326 12.6H11.7194V10.35C11.7194 10.2307 11.7635 10.1162 11.8419 10.0318C11.9204 9.94741 12.0269 9.9 12.1379 9.9C12.2489 9.9 12.3554 9.94741 12.4339 10.0318C12.5124 10.1162 12.5565 10.2307 12.5565 10.35V12.6H14.6467C14.7577 12.6 14.8641 12.6474 14.9426 12.7318C15.0211 12.8162 15.0652 12.9307 15.0652 13.05C15.0652 13.1693 15.0211 13.2838 14.9426 13.3682C14.8641 13.4526 14.7577 13.5 14.6467 13.5H12.5565Z" fill="#F8F8F8"/>
</svg>
