<svg width="17" height="17" viewBox="0 0 17 17" fill="none" xmlns="http://www.w3.org/2000/svg">
<path d="M1 8.125C1 5.29675 1 3.88225 1.879 3.004C2.75725 2.125 4.17175 2.125 7 2.125H10C12.8282 2.125 14.2427 2.125 15.121 3.004C16 3.88225 16 5.29675 16 8.125V9.625C16 12.4532 16 13.8677 15.121 14.746C14.2427 15.625 12.8282 15.625 10 15.625H7C4.17175 15.625 2.75725 15.625 1.879 14.746C1 13.8677 1 12.4532 1 9.625V8.125Z" stroke="#F8F8F8" stroke-width="1.125"/>
<path d="M4.75 2.125V1M12.25 2.125V1M1.375 5.875H15.625" stroke="#F8F8F8" stroke-width="1.125" stroke-linecap="round"/>
<path d="M13 11.875C13 12.0739 12.921 12.2647 12.7803 12.4053C12.6397 12.546 12.4489 12.625 12.25 12.625C12.0511 12.625 11.8603 12.546 11.7197 12.4053C11.579 12.2647 11.5 12.0739 11.5 11.875C11.5 11.6761 11.579 11.4853 11.7197 11.3447C11.8603 11.204 12.0511 11.125 12.25 11.125C12.4489 11.125 12.6397 11.204 12.7803 11.3447C12.921 11.4853 13 11.6761 13 11.875ZM13 8.875C13 9.07391 12.921 9.26468 12.7803 9.40533C12.6397 9.54598 12.4489 9.625 12.25 9.625C12.0511 9.625 11.8603 9.54598 11.7197 9.40533C11.579 9.26468 11.5 9.07391 11.5 8.875C11.5 8.67609 11.579 8.48532 11.7197 8.34467C11.8603 8.20402 12.0511 8.125 12.25 8.125C12.4489 8.125 12.6397 8.20402 12.7803 8.34467C12.921 8.48532 13 8.67609 13 8.875ZM9.25 11.875C9.25 12.0739 9.17098 12.2647 9.03033 12.4053C8.88968 12.546 8.69891 12.625 8.5 12.625C8.30109 12.625 8.11032 12.546 7.96967 12.4053C7.82902 12.2647 7.75 12.0739 7.75 11.875C7.75 11.6761 7.82902 11.4853 7.96967 11.3447C8.11032 11.204 8.30109 11.125 8.5 11.125C8.69891 11.125 8.88968 11.204 9.03033 11.3447C9.17098 11.4853 9.25 11.6761 9.25 11.875ZM9.25 8.875C9.25 9.07391 9.17098 9.26468 9.03033 9.40533C8.88968 9.54598 8.69891 9.625 8.5 9.625C8.30109 9.625 8.11032 9.54598 7.96967 9.40533C7.82902 9.26468 7.75 9.07391 7.75 8.875C7.75 8.67609 7.82902 8.48532 7.96967 8.34467C8.11032 8.20402 8.30109 8.125 8.5 8.125C8.69891 8.125 8.88968 8.20402 9.03033 8.34467C9.17098 8.48532 9.25 8.67609 9.25 8.875ZM5.5 11.875C5.5 12.0739 5.42098 12.2647 5.28033 12.4053C5.13968 12.546 4.94891 12.625 4.75 12.625C4.55109 12.625 4.36032 12.546 4.21967 12.4053C4.07902 12.2647 4 12.0739 4 11.875C4 11.6761 4.07902 11.4853 4.21967 11.3447C4.36032 11.204 4.55109 11.125 4.75 11.125C4.94891 11.125 5.13968 11.204 5.28033 11.3447C5.42098 11.4853 5.5 11.6761 5.5 11.875ZM5.5 8.875C5.5 9.07391 5.42098 9.26468 5.28033 9.40533C5.13968 9.54598 4.94891 9.625 4.75 9.625C4.55109 9.625 4.36032 9.54598 4.21967 9.40533C4.07902 9.26468 4 9.07391 4 8.875C4 8.67609 4.07902 8.48532 4.21967 8.34467C4.36032 8.20402 4.55109 8.125 4.75 8.125C4.94891 8.125 5.13968 8.20402 5.28033 8.34467C5.42098 8.48532 5.5 8.67609 5.5 8.875Z" fill="#F8F8F8"/>
</svg>
