<svg width="17" height="21" viewBox="0 0 17 21" fill="none" xmlns="http://www.w3.org/2000/svg">
<path d="M8.5 10.5H16M16 10.5L12.7857 13.6667M16 10.5L12.7857 7.33333M16 4.16667V3.11111C16 2.55121 15.7742 2.01424 15.3724 1.61833C14.9705 1.22242 14.4255 1 13.8571 1H3.14286C2.57454 1 2.02949 1.22242 1.62763 1.61833C1.22576 2.01424 1 2.55121 1 3.11111V17.8889C1 18.4488 1.22576 18.9858 1.62763 19.3817C2.02949 19.7776 2.57454 20 3.14286 20H13.8571C14.4255 20 14.9705 19.7776 15.3724 19.3817C15.7742 18.9858 16 18.4488 16 17.8889V16.8333" stroke="#F8F8F8" stroke-width="1.125" stroke-linecap="round" stroke-linejoin="round"/>
</svg>
